<svg id="lock-line" xmlns="http://www.w3.org/2000/svg" xmlns:xlink="http://www.w3.org/1999/xlink" width="450" height="419.94" viewBox="0 0 450 419.94"><defs><style>.cls-1{fill:url(#New_Gradient_Swatch_1);}.cls-2{fill:url(#New_Gradient_Swatch_1-2);}.cls-3,.cls-5{fill:none;}.cls-3,.cls-4{stroke:#282b3f;}.cls-3,.cls-4,.cls-5{stroke-linejoin:bevel;stroke-width:20px;}.cls-4{fill:url(#linear-gradient);}.cls-5{stroke:url(#linear-gradient-2);}</style><linearGradient id="New_Gradient_Swatch_1" x1="25" y1="250" x2="129" y2="250" gradientUnits="userSpaceOnUse"><stop offset="0" stop-color="#a75cf2"/><stop offset="0.25" stop-color="#858bf2"/><stop offset="0.48" stop-color="#36bbd9"/><stop offset="0.73" stop-color="#04d9c4"/><stop offset="0.96" stop-color="#04d9b2"/></linearGradient><linearGradient id="New_Gradient_Swatch_1-2" x1="371" y1="250" x2="475" y2="250" xlink:href="#New_Gradient_Swatch_1"/><linearGradient id="linear-gradient" x1="295" y1="337.97" x2="320" y2="337.97" gradientUnits="userSpaceOnUse"><stop offset="0" stop-color="#a75cf2"/><stop offset="0.48" stop-color="#36bbd9"/><stop offset="0.96" stop-color="#04d9b2"/></linearGradient><linearGradient id="linear-gradient-2" x1="250.52" y1="207.25" x2="250.52" y2="101" gradientUnits="userSpaceOnUse"><stop offset="0" stop-color="#36bbd9"/><stop offset="0" stop-color="#41b2db"/><stop offset="0" stop-color="#5d9ae2"/><stop offset="0" stop-color="#8c73ec"/><stop offset="0" stop-color="#a75cf2"/><stop offset="0.99" stop-color="#36bbd9"/></linearGradient></defs><title>typesmith-logo-v5</title><path class="cls-1" d="M129,460q-33.39-1-50.19-18.12T62,388.2V316.65q0-26.08-9.37-40.08T25,260.68V239.33q37-4,37-54.31V112.28q0-36.72,16.81-54T129,40V65.26q-20.31,1.2-29.16,13.26T91,117.12v70.46q0,51.31-35,61.95v.95q35,10.88,35,63.62v67.83a125.3,125.3,0,0,0,1.91,23.66,42.06,42.06,0,0,0,6.45,16.25,28.3,28.3,0,0,0,11.72,9.68q7.17,3.23,17.92,3.46Z" transform="translate(-25 -40.03)"/><path class="cls-2" d="M371,460q33.39-1,50.19-18.12T438,388.2V316.65q0-26.08,9.37-40.08T475,260.68V239.33q-37-4-37-54.31V112.28q0-36.72-16.81-54T371,40V65.26q20.31,1.2,29.16,13.26t8.84,38.6v70.46q0,51.31,35,61.95v.95q-35,10.88-35,63.62v67.83a125.3,125.3,0,0,1-1.91,23.66,42.06,42.06,0,0,1-6.45,16.25,28.3,28.3,0,0,1-11.72,9.68Q381.75,434.75,371,435Z" transform="translate(-25 -40.03)"/><path class="cls-3" d="M345,378" transform="translate(-25 -40.03)"/><path class="cls-3" d="M155,375" transform="translate(-25 -40.03)"/><line class="cls-4" x1="295" y1="337.97" x2="320" y2="337.97"/><line class="cls-3" x1="130" y1="337.97" x2="269" y2="337.97"/><line class="cls-3" x1="243" y1="293.97" x2="320" y2="293.97"/><line class="cls-3" x1="130" y1="293.97" x2="209" y2="293.97"/><line class="cls-3" x1="183" y1="203.97" x2="320" y2="203.97"/><line class="cls-3" x1="130" y1="204.97" x2="156" y2="204.97"/><line class="cls-3" x1="243" y1="250.97" x2="320" y2="250.97"/><line class="cls-3" x1="130" y1="250.97" x2="209" y2="250.97"/><path class="cls-5" d="M181,207c-1-129,142.12-127,139,0" transform="translate(-25 -40.03)"/></svg>